<svg width="101" height="101" viewBox="0 0 101 101" fill="none" xmlns="http://www.w3.org/2000/svg">
<path fillRule="evenodd" clip-rule="evenodd" d="M7.58324 75.1428C8.37074 73.4222 9.4145 71.8629 10.6614 70.5204C13.038 67.9682 16.1489 66.2039 19.6239 65.631C19.8255 65.599 20.013 65.6797 20.1364 65.8544C20.2614 66.0275 20.2849 66.2442 20.2036 66.4442L17.9286 72.0007C17.8724 72.1385 17.7833 72.236 17.6552 72.2964C16.4739 72.8744 15.4067 73.6759 14.5005 74.6488C14.177 74.9966 13.8739 75.3679 13.5926 75.7577C13.4864 75.9039 13.338 75.9846 13.1645 75.9846H8.06918C7.87699 75.9846 7.71136 75.8854 7.60824 75.709C7.50667 75.5326 7.4973 75.3276 7.58324 75.1428ZM31.9646 68.3882H41.66C42.3444 68.3882 42.9037 68.9914 42.9037 69.7274V77.7471C42.9037 78.4847 42.3444 79.0863 41.66 79.0863H28.4849C27.8021 79.0863 27.0255 78.2277 27.4458 77.1557L30.3537 69.7274C30.724 68.7797 31.2787 68.3882 31.9646 68.3882ZM66.6023 45.9252C65.6851 45.9252 64.9414 45.1254 64.9414 44.1374C64.9414 43.1511 65.6851 42.3513 66.6023 42.3513H70.4117C70.8008 42.3513 71.157 42.4925 71.4398 42.7327L74.7117 45.1338C76.0727 44.297 77.482 44.2248 77.482 44.2248C77.6367 43.509 78.2367 42.9713 78.9477 42.9713H81.5711C82.3993 42.9713 83.0774 43.7005 83.0774 44.5911V52.9721C83.0774 53.8609 82.3993 54.5901 81.5711 54.5901H78.9477C78.7164 54.5901 78.4492 54.5465 78.1695 54.5145C77.8414 54.4742 77.5727 54.3196 77.3602 54.0474C76.4398 52.8679 75.0273 51.7337 72.8695 51.1188C72.5305 51.023 72.2711 50.8046 72.1023 50.4719C71.9336 50.1409 71.9039 49.788 72.0117 49.4285C72.1539 48.953 72.3289 48.4287 72.5414 47.8591L69.9054 45.9252H66.6023ZM85.2571 79.5517C86.9305 79.8239 88.0821 81.5041 87.829 83.3037C87.5758 85.1032 86.0149 86.3398 84.3415 86.0693C82.668 85.7971 81.5164 84.1186 81.768 82.319C82.0211 80.5178 83.5836 79.2812 85.2571 79.5517ZM18.1802 79.0863H2.11758C1.48164 79.0863 0.962891 79.6441 0.962891 80.328V83.2264C0.962891 83.9069 1.48164 84.4681 2.11758 84.4681H54.8444C57.3632 84.4681 61.1195 84.1572 62.446 78.8544C64.6413 70.0819 67.3539 66.8172 73.582 64.4615L76.993 72.4745C77.1227 72.782 77.4477 72.8896 77.7274 72.7551C78.0008 72.6258 78.3195 72.7535 78.4477 73.0441L80.8196 78.4108C80.8961 78.5872 81.0321 78.7065 81.2102 78.7418C81.3883 78.7788 81.5414 78.7032 81.6868 78.5906C82.3243 78.0966 83.0836 77.6665 83.7883 77.5657C83.9555 77.5421 84.0805 77.4195 84.1555 77.2565C84.2305 77.0935 84.2368 76.9171 84.1633 76.7541L81.7649 71.4126C81.6289 71.1102 81.768 70.7674 82.0477 70.6313C82.3196 70.4986 82.4399 70.1491 82.3164 69.8567L79.0242 62.1142C79.0102 62.0521 76.7367 51.4683 66.882 51.9908C66.0679 52.0345 65.2523 52.0429 64.4445 52.1017C64.3273 52.1101 64.2242 52.0715 64.1382 51.9858C64.0538 51.9001 64.0085 51.7909 64.0085 51.6649V51.359C64.0085 50.855 63.6257 50.4416 63.157 50.4416H59.4366C58.9679 50.4416 58.5851 50.855 58.5851 51.359V52.5923C58.5851 52.8007 58.4523 52.9754 58.2632 53.0208C51.4991 54.5801 46.7069 57.7675 48.8975 61.6606H28.8552C26.6552 61.6606 24.7724 62.9812 23.8864 65.147L18.1802 79.0863ZM24.3161 56.4619H44.0725C44.9116 56.4619 45.5975 57.2012 45.5975 58.1035C45.5975 59.0058 44.9116 59.7451 44.0725 59.7451H24.3161C23.4771 59.7451 22.7896 59.0075 22.7896 58.1035C22.7896 57.2012 23.4755 56.4619 24.3161 56.4619ZM87.2133 65.6259C91.6259 66.3434 95.3509 68.9158 97.8056 72.4964C100.262 76.077 101.446 80.6623 100.779 85.4073C100.112 90.1523 97.7197 94.158 94.3915 96.7976C91.0618 99.4373 86.7962 100.713 82.3836 99.9951C77.9711 99.2776 74.2461 96.7052 71.7914 93.1246C69.3367 89.5457 68.1507 84.9587 68.8179 80.2137C69.2617 77.0599 70.4679 74.2354 72.2008 71.9184C72.3211 71.7588 72.4945 71.6815 72.6851 71.705C72.8758 71.7285 73.0273 71.8445 73.1117 72.0293L75.3164 76.8835C75.3961 77.0565 75.3914 77.243 75.3086 77.4128C74.7602 78.5301 74.3727 79.7651 74.1867 81.0858C73.7445 84.2379 74.5305 87.2841 76.1602 89.66C77.7899 92.0375 80.2649 93.7463 83.1961 94.2218C86.1258 94.699 88.9587 93.8522 91.1696 92.0997C93.379 90.3472 94.9681 87.6874 95.4103 84.5353C95.854 81.3831 95.0665 78.3369 93.4368 75.9594C91.8087 73.5835 89.3337 71.8764 86.4024 71.3992C86.2727 71.3774 86.143 71.3589 86.0149 71.3438C85.8243 71.3202 85.6712 71.2043 85.5883 71.0195L83.4415 66.293C83.3602 66.1115 83.3664 65.9149 83.4618 65.7418C83.5571 65.5671 83.7133 65.4646 83.9008 65.4545C84.9868 65.3907 86.0962 65.4444 87.2133 65.6259ZM37.4162 88.3393C36.6131 90.9134 35.2646 93.2221 33.5177 95.0989C30.5927 98.2443 26.5521 100.19 22.0896 100.19C17.627 100.19 13.5864 98.2443 10.6614 95.0989C8.91449 93.2221 7.56605 90.9134 6.76292 88.3393C6.70511 88.1545 6.73167 87.9697 6.83636 87.8117C6.94105 87.6555 7.0973 87.5681 7.27699 87.5681H11.9645C12.177 87.5681 12.3583 87.6907 12.452 87.8957C12.9755 89.0416 13.6708 90.08 14.5005 90.9722C16.4427 93.0608 19.1255 94.3512 22.0896 94.3512C25.0536 94.3512 27.738 93.0608 29.6802 90.9722C30.5099 90.08 31.2037 89.0416 31.7271 87.8957C31.8209 87.6907 32.0021 87.5681 32.2146 87.5681H36.9021C37.0834 87.5681 37.2381 87.6555 37.3428 87.8117C37.4475 87.9697 37.474 88.1545 37.4162 88.3393Z" fill="#D2D2D2"/>
<path d="M15.7018 5.81469C22.419 5.15772 28.4175 2.51135 32.9628 0.192627H33.0378C37.5988 2.51807 43.6222 5.1678 50.3676 5.82141C51.0817 5.8903 51.6192 6.50023 51.6098 7.22777C51.5004 14.4897 51.591 22.6069 49.9942 27.7753C47.541 35.7229 41.3988 42.0153 33.6019 44.5911C33.3191 44.6835 33.0519 44.6869 32.7675 44.5962C25.0003 42.1397 18.4346 35.7195 16.0815 27.7703C14.8018 23.6756 14.6393 14.4763 14.4612 7.23449C14.444 6.50358 14.9846 5.88526 15.7018 5.81469Z" fill="#A6D744"/>
<path d="M30.7769 21.9137L27.2034 17.8862C26.8753 17.5182 26.4753 17.3216 26.0019 17.3065C25.53 17.2914 25.1159 17.4594 24.7722 17.8089L22.294 20.3276C21.6081 21.0232 21.5737 22.1977 22.2237 22.9336L28.2066 29.7167L29.4066 31.0861C29.7363 31.4625 30.1456 31.6574 30.6253 31.6675C31.1066 31.6775 31.5222 31.4978 31.8628 31.1365L33.1066 29.8175L43.8035 18.4659C44.477 17.7501 44.4848 16.579 43.8192 15.8548L41.4082 13.2269C40.7441 12.5027 39.6535 12.4943 38.9801 13.2101L30.7769 21.9137Z" fill="white"/>
</svg>
