<svg width="106" height="101" viewBox="0 0 106 101" fill="none" xmlns="http://www.w3.org/2000/svg">
	<path fillRule="evenodd" clipRule="evenodd" d="M8.46573 47.5818C0.369039 41.6765 1.30097 35.1611 9.43186 35.8444L11.253 40.7248L15.0064 24.0704C16.4855 17.494 18.9222 11.5521 23.7614 11.5521H50.3599V18.1162H25.3517C21.6838 18.1162 19.8028 22.6428 18.6742 27.6331L15.1517 44.3852H50.3599V55.659C50.3559 57.1311 50.5324 58.5929 50.8815 59.9781L51.061 60.6736C51.5136 62.2227 52.1727 63.6316 53.0018 64.822L53.0702 64.9318C53.905 66.1076 54.8924 67.0401 55.9772 67.677C56.5129 67.9942 57.0682 68.2393 57.6358 68.4091C57.7219 69.3396 57.8737 70.2552 58.089 71.1421L58.2685 71.8376C58.73 73.3959 59.3977 74.8127 60.235 76.0103L60.2777 76.0835C61.1156 77.2598 62.1058 78.1922 63.1932 78.8288C64.2765 79.4775 65.4384 79.8174 66.6132 79.8293H76.7618C77.5135 79.8327 78.259 79.634 78.9591 79.2436C81.8186 83.6468 85.3829 86.9959 89.3472 89.0045C89.8936 89.32 90.4699 89.5174 91.0571 89.5901V96.2885C91.0549 97.323 90.7659 98.3143 90.2533 99.0458C89.7407 99.7773 89.0461 100.19 88.3212 100.193H76.6165C75.8915 100.19 75.1969 99.7773 74.6843 99.0458C74.1717 98.3143 73.8828 97.323 73.8805 96.2885V93.1529H18.6999V96.2885C18.6976 97.323 18.4087 98.3143 17.8961 99.0458C17.3834 99.7773 16.6889 100.19 15.9639 100.193H4.28486C3.55994 100.19 2.86535 99.7773 2.35275 99.0458C1.84015 98.3143 1.55117 97.323 1.54892 96.2885V87.2841C1.54045 87.081 1.54045 86.8772 1.54892 86.6741C0.693932 70.4955 -0.588542 55.9152 8.38878 47.6306L8.46573 47.5818ZM105.934 42.3232C106.669 63.37 101.223 75.8029 91.5701 80.9762C82.2508 76.0957 76.7447 64.2363 77.1466 42.006C82.3226 42.5559 87.4539 40.3038 91.5188 35.698C95.6484 39.4437 100.924 43.0186 105.934 42.3232ZM64.1765 36.7961C63.859 36.7961 63.5545 36.6161 63.3301 36.2958C63.1056 35.9754 62.9795 35.541 62.9795 35.0879C62.9795 34.6349 63.1056 34.2004 63.3301 33.8801C63.5545 33.5598 63.859 33.3798 64.1765 33.3798H76.3942C76.7116 33.3798 77.0161 33.5598 77.2406 33.8801C77.465 34.2004 77.5911 34.6349 77.5911 35.0879C77.5911 35.541 77.465 35.9754 77.2406 36.2958C77.0161 36.6161 76.7116 36.7961 76.3942 36.7961H64.1765ZM64.1765 26.3398C63.859 26.3398 63.5545 26.1598 63.3301 25.8395C63.1056 25.5191 62.9795 25.0847 62.9795 24.6316C62.9795 24.1786 63.1056 23.7441 63.3301 23.4238C63.5545 23.1034 63.859 22.9235 64.1765 22.9235H82.6869C83.0043 22.9235 83.3088 23.1034 83.5332 23.4238C83.7577 23.7441 83.8838 24.1786 83.8838 24.6316C83.8838 25.0847 83.7577 25.5191 83.5332 25.8395C83.3088 26.1598 83.0043 26.3398 82.6869 26.3398H64.1765ZM64.1765 15.8835C63.859 15.8835 63.5545 15.7035 63.3301 15.3831C63.1056 15.0628 62.9795 14.6283 62.9795 14.1753C62.9795 13.7223 63.1056 13.2878 63.3301 12.9675C63.5545 12.6471 63.859 12.4672 64.1765 12.4672H86.3547C86.6722 12.4672 86.9766 12.6471 87.2011 12.9675C87.4256 13.2878 87.5517 13.7223 87.5517 14.1753C87.5517 14.6283 87.4256 15.0628 87.2011 15.3831C86.9766 15.7035 86.6722 15.8835 86.3547 15.8835H64.1765ZM64.1765 47.2524C64.0113 47.2724 63.8451 47.2432 63.6883 47.1667C63.5315 47.0903 63.3875 46.9682 63.2655 46.8082C63.1435 46.6482 63.0461 46.4538 62.9794 46.2372C62.9128 46.0207 62.8784 45.7868 62.8784 45.5504C62.8784 45.3139 62.9128 45.08 62.9794 44.8635C63.0461 44.647 63.1435 44.4526 63.2655 44.2926C63.3875 44.1326 63.5315 44.0105 63.6883 43.934C63.8451 43.8575 64.0113 43.8283 64.1765 43.8483H70.2212C70.3863 43.8283 70.5525 43.8575 70.7093 43.934C70.8661 44.0105 71.0101 44.1326 71.1321 44.2926C71.2541 44.4526 71.3516 44.647 71.4182 44.8635C71.4848 45.08 71.5192 45.3139 71.5192 45.5504C71.5192 45.7868 71.4848 46.0207 71.4182 46.2372C71.3516 46.4538 71.2541 46.6482 71.1321 46.8082C71.0101 46.9682 70.8661 47.0903 70.7093 47.1667C70.5525 47.2432 70.3863 47.2724 70.2212 47.2524H64.1765ZM94.2035 11.3569H98.4356C99.2361 11.3569 100.004 11.8106 100.57 12.6183C101.136 13.4261 101.454 14.5216 101.454 15.6638C101.454 22.8747 103.625 35.9542 98.8888 33.026V15.6638C98.8912 15.5835 98.8809 15.5034 98.8587 15.4295C98.8365 15.3556 98.803 15.2897 98.7605 15.2368C98.7228 15.1766 98.6767 15.1281 98.6252 15.0945C98.5737 15.0609 98.5179 15.0429 98.4613 15.0416H94.2377V29.6829C93.3827 28.9996 92.5277 28.2553 91.6727 27.4745V4.49985C91.6718 4.41905 91.6592 4.3394 91.6356 4.26591C91.6121 4.19242 91.5781 4.12667 91.5359 4.07281C91.4982 4.01257 91.4521 3.96413 91.4006 3.93053C91.3491 3.89694 91.2933 3.87891 91.2367 3.8776H59.4484C59.3918 3.87891 59.336 3.89694 59.2845 3.93053C59.233 3.96413 59.1869 4.01257 59.1492 4.07281C59.1081 4.12729 59.0755 4.19342 59.0534 4.26697C59.0313 4.34051 59.0202 4.41984 59.0209 4.49985V55.659C59.0185 55.7393 59.0288 55.8194 59.051 55.8933C59.0732 55.9672 59.1067 56.0331 59.1492 56.086C59.1869 56.1462 59.233 56.1947 59.2845 56.2283C59.336 56.2619 59.3918 56.2799 59.4484 56.2812H73.1281C73.3077 57.5013 73.5043 58.7214 73.7266 59.9415H66.2541V66.7985C66.2523 66.8788 66.2628 66.9586 66.285 67.0324C66.3071 67.1061 66.3404 67.1721 66.3823 67.2256C66.421 67.2873 66.4685 67.3367 66.5215 67.3703C66.5746 67.404 66.632 67.4212 66.6901 67.4208H75.505C75.8897 68.7019 76.3172 69.9342 76.7618 71.0811H66.6901C66.2931 71.0827 65.8997 70.9725 65.5325 70.7568C65.1654 70.541 64.8316 70.2241 64.5505 69.824C64.2693 69.4239 64.0462 68.9485 63.894 68.4252C63.7418 67.9018 63.6635 67.3408 63.6635 66.7741V59.9781H59.4484C59.0521 59.9781 58.6596 59.8667 58.2934 59.6503C57.9272 59.4338 57.5945 59.1166 57.3143 58.7166C57.034 58.3167 56.8117 57.8419 56.66 57.3194C56.5084 56.7968 56.4303 56.2368 56.4303 55.6712V4.49985C56.4303 3.93425 56.5084 3.37419 56.66 2.85164C56.8117 2.32909 57.034 1.8543 57.3143 1.45436C57.5945 1.05442 57.9272 0.737166 58.2934 0.52072C58.6596 0.304274 59.0521 0.192871 59.4484 0.192871L91.1854 0.192871C91.9858 0.192871 92.7535 0.646641 93.3195 1.45436C93.8855 2.26207 94.2035 3.35757 94.2035 4.49985V11.3569ZM91.5958 38.8947C96.2127 43.0674 100.394 45.0562 103.976 44.5804C104.6 62.6502 99.9319 73.3261 91.6385 77.7917C83.6359 73.6189 78.9078 63.4066 79.2498 44.312C83.696 44.7854 88.104 42.8512 91.5958 38.8947ZM23.3766 66.7619L13.0057 64.8586C10.5519 64.4803 9.9021 65.9445 10.7314 68.9581L11.8515 72.8381C12.1708 73.7476 12.655 74.5186 13.2536 75.0709C13.9594 75.6609 14.7613 75.9764 15.5792 75.9859L24.8301 76.0957C27.0616 76.0957 28.0278 74.8146 27.3267 71.8864C27.0788 70.5803 26.5759 69.4016 25.8765 68.4878C25.1771 67.574 24.3102 66.9628 23.3766 66.7253V66.7619Z" fill="#D2D2D2" />
	<path fillRule="evenodd" clipRule="evenodd" d="M91.5705 80.9764C101.223 75.8032 106.67 63.3703 105.934 42.3234C100.924 43.0189 95.6488 39.444 91.5192 35.6982C87.4543 40.304 82.323 42.5561 77.1469 42.0062C76.7451 64.2366 82.2512 76.096 91.5705 80.9764Z" fill="#A6D744" />
	<path d="M92.0112 48.6725C93.7505 48.8558 95.402 49.8375 96.7185 51.4715C98.0455 53.1186 98.9597 55.3387 99.3222 57.7947L98.2877 59.6004L97.3045 57.7947H97.1676L96.1331 59.6126L95.1499 57.7947H94.9019L93.8674 59.6004L92.8842 57.7947H92.7559C92.7405 58.0232 92.6754 58.239 92.5695 58.4119C92.4637 58.5848 92.3226 58.706 92.166 58.7586V65.2983C92.1701 66.2475 91.9156 67.1618 91.4564 67.8484C91.2358 68.179 90.9705 68.4424 90.6766 68.6228C90.3828 68.8031 90.0663 68.8966 89.7464 68.8977C89.4265 68.8966 89.11 68.8031 88.8161 68.6228C88.5223 68.4424 88.257 68.179 88.0364 67.8484C87.5792 67.1648 87.3249 66.2555 87.3268 65.3105V64.9811H88.3613V65.3105C88.3577 65.8507 88.5018 66.3716 88.7632 66.7625C88.8895 66.9497 89.0409 67.0991 89.2082 67.2017C89.3756 67.3044 89.5557 67.3583 89.7378 67.3603C89.921 67.3603 90.1022 67.3061 90.27 67.2011C90.4377 67.0961 90.5884 66.9426 90.7125 66.7503C90.8446 66.5588 90.9489 66.332 91.0193 66.0828C91.0898 65.8336 91.125 65.567 91.1229 65.2983V58.7586C90.9926 58.6907 90.8789 58.5705 90.7955 58.4125C90.712 58.2544 90.6624 58.0653 90.6527 57.8679H90.2337L89.2505 59.6736L88.2245 57.8679H87.9766L86.9848 59.6858L85.9503 57.8801H85.8135L84.8302 59.6858L83.8043 57.8801C84.1625 55.4462 85.0631 53.2431 86.3715 51.6002C87.6799 49.9574 89.3258 48.9631 91.0631 48.7659L91.5932 47.7776L92.0112 48.6725Z" fill="white" />
</svg>
