<svg width="100" height="101" viewBox="0 0 100 101" fill="none" xmlns="http://www.w3.org/2000/svg">
	<path fillRule="evenodd" clip-rule="evenodd" d="M54.0488 86.6966H71.8796C73.312 85.2405 74.8826 83.7261 76.4777 82.1868C79.8225 78.9501 83.3138 75.5719 86.9028 71.3451C91.0045 66.5108 91.4439 64.8383 92.6891 60.1039C92.9251 59.2136 93.1855 58.2151 93.5273 56.9754L95.6595 49.3121L95.6839 49.2289C96.8233 45.8174 96.9128 43.5626 96.4408 42.2645C96.2943 41.8651 96.1071 41.5989 95.8874 41.4574C95.7165 41.341 95.4886 41.2993 95.2526 41.3243C94.6992 41.3825 94.0726 41.7403 93.5029 42.381L87.1714 57.7991C87.1144 57.9406 87.033 58.0737 86.9435 58.1902C86.5691 58.8808 86.0646 59.5548 85.4135 60.1955L74.1827 73.0009C73.5724 73.6998 72.5225 73.758 71.8471 73.134C71.1635 72.51 71.1065 71.4366 71.7169 70.746L82.9557 57.9406C83.0046 57.8823 83.0534 57.8241 83.1104 57.7742C84.2741 56.6425 84.6404 55.4194 84.4369 54.5291C84.3718 54.2545 84.2579 54.0216 84.0951 53.8635C83.9405 53.7137 83.737 53.6222 83.4847 53.5972C82.4837 53.489 81.0107 54.2462 79.2122 56.4179C79.1633 56.4761 79.1064 56.5344 79.0494 56.5926L74.6954 60.52L74.671 60.5449C69.959 65.1046 67.9326 66.1863 64.2378 68.1583C63.4647 68.5743 62.6183 69.0236 61.5685 69.6061C61.1534 69.839 60.7465 70.1219 60.3478 70.4298C59.9246 70.7626 59.5177 71.1038 59.1352 71.4366C57.182 73.1174 56.1566 74.4819 55.5706 75.988C54.9602 77.5522 54.7405 79.4577 54.4394 82.0703C54.3173 83.1271 54.2278 84.1671 54.1546 85.2072C54.0976 85.7064 54.0732 86.2057 54.0488 86.6966ZM49.6704 10.3633C54.0813 5.65385 57.1738 1.58507 63.9855 0.786292C76.7626 -0.711418 88.5142 12.6598 82.0605 25.823C80.8561 28.2859 78.8297 31.0484 76.4126 33.894V33.5445H59.8757L59.2898 34.1603L56.6449 36.9477L51.2004 26.2557L49.3937 22.7028L47.6603 26.2973L42.7285 36.54L37.8374 29.2844L36.1203 26.7383L34.5252 29.3759L32.2302 33.1618H22.1632C18.737 28.3608 16.3362 23.1604 16.1409 17.5523C15.7747 7.29301 23.6932 0.719727 32.808 0.844536C40.9462 0.952704 44.3643 5.09637 49.6704 10.3633ZM73.0922 37.6133C72.8481 37.8796 72.5958 38.1458 72.3435 38.4121C67.8024 43.2131 62.7811 47.9226 59.2654 51.4921L49.6704 61.2272L41.7438 53.4225C36.9097 48.6631 30.5374 43.288 25.3615 37.2306H34.4275L35.0135 36.2654L36.2912 34.1436L41.3775 41.6904L43.29 44.5277L44.7793 41.4325L49.4751 31.689L54.3824 41.3243L55.652 43.8205L57.5645 41.8069L61.5359 37.6216L73.0922 37.6133ZM45.9594 86.6966H28.1204C26.688 85.2405 25.1174 83.7261 23.5223 82.1868C20.1775 78.9501 16.6862 75.5719 13.0972 71.3451C8.99553 66.5108 8.55607 64.8383 7.31092 60.1039C7.07491 59.2136 6.81449 58.2151 6.47268 56.9754L4.34047 49.3121L4.31605 49.2289C3.1767 45.8174 3.08718 43.5626 3.5592 42.2645C3.70568 41.8651 3.89286 41.5989 4.1126 41.4574C4.2835 41.341 4.51137 41.2993 4.74738 41.3243C5.30078 41.3825 5.92742 41.7403 6.4971 42.381L12.8286 57.7991C12.8856 57.9406 12.967 58.0737 13.0565 58.1902C13.4309 58.8808 13.9354 59.5548 14.5865 60.1955L25.8173 73.0009C26.4276 73.6998 27.4775 73.758 28.1529 73.134C28.8365 72.51 28.8935 71.4366 28.2831 70.746L17.0605 57.9239C17.0117 57.8657 16.9629 57.8074 16.9059 57.7575C15.7421 56.6259 15.3759 55.4028 15.5794 54.5125C15.6445 54.2379 15.7584 54.0049 15.9212 53.8468C16.0758 53.6971 16.2792 53.6055 16.5315 53.5806C17.5325 53.4724 19.0137 54.2296 20.8041 56.4013C20.8041 56.4013 20.9587 56.5593 20.975 56.576L25.329 60.5033L25.3534 60.5283C30.0654 65.088 32.0918 66.1696 35.7866 68.1416C36.5597 68.5577 37.4061 69.007 38.4559 69.5894C38.871 69.8224 39.2779 70.1053 39.6767 70.4132C40.0998 70.746 40.5068 71.0871 40.8893 71.42C42.8424 73.1007 43.8678 74.4653 44.4538 75.9713C45.0642 77.5356 45.2839 79.441 45.585 82.0537C45.7071 83.1104 45.7966 84.1505 45.8699 85.1906C45.9105 85.7064 45.935 86.2057 45.9594 86.6966ZM23.9699 87.279C23.7176 87.5786 23.563 87.9697 23.563 88.394V98.4952C23.563 99.4354 24.3117 100.193 25.2232 100.193H47.6684C48.588 100.193 49.3286 99.4271 49.3286 98.4952V88.2942C49.3286 87.2125 49.2635 86.0476 49.1902 84.9659C49.117 83.8593 49.0193 82.7609 48.8973 81.6709C48.5717 78.817 48.3276 76.7285 47.5463 74.7232C46.7406 72.668 45.4467 70.8958 43.0459 68.8239C42.6064 68.4412 42.1588 68.0584 41.6868 67.7006C41.1904 67.3179 40.6532 66.9518 40.051 66.6106C39.0744 66.0698 38.1629 65.5789 37.3328 65.1296C33.9148 63.299 32.043 62.3006 27.6402 58.0404C27.6077 58.0071 27.567 57.9738 27.5344 57.9489L23.2863 54.1131C20.6902 51.0095 18.151 49.9777 16.206 50.1941H16.1979C15.2457 50.2939 14.4319 50.6767 13.7808 51.2591L9.49196 40.8084H9.48383C9.41872 40.6587 9.33734 40.5172 9.23154 40.3841C8.03522 38.9446 6.52965 38.0959 5.08104 37.9461C4.09632 37.8463 3.14415 38.0626 2.31405 38.6118C1.52464 39.136 0.87358 39.9514 0.466669 41.0747C-0.249496 43.03 -0.233219 46.0671 1.16656 50.269L3.2825 57.8823C3.59175 58.9806 3.86031 60.0374 4.1126 60.9693C5.49609 66.2529 5.98439 68.125 10.5988 73.55C14.2528 77.8518 17.8255 81.3132 21.2598 84.6248C22.1632 85.5151 23.0584 86.3804 23.9699 87.279ZM27.1438 90.0914C27.3635 90.1413 27.5914 90.1413 27.8193 90.0914H46.0001V96.7978H26.8834V90.0914H27.1438ZM76.0383 87.279C76.2905 87.5786 76.4452 87.9697 76.4452 88.394V98.4952C76.4452 99.4354 75.7046 100.193 74.785 100.193H52.3479C51.4283 100.193 50.6877 99.4271 50.6877 98.4952V88.2942C50.6877 88.2359 50.6877 88.1693 50.6958 88.1111C50.7202 87.0211 50.7609 85.9644 50.826 84.9659C50.8993 83.8593 50.9969 82.7609 51.119 81.6709C51.4445 78.817 51.6887 76.7285 52.47 74.7232C53.2756 72.668 54.5696 70.8958 56.9704 68.8239C57.4099 68.4412 57.8575 68.0584 58.3295 67.7006C58.8259 67.3179 59.363 66.9518 59.9653 66.6106C60.9418 66.0698 61.8533 65.5789 62.6834 65.1296C66.1015 63.299 67.9733 62.3006 72.3761 58.0404C72.4086 58.0071 72.4493 57.9738 72.4818 57.9489L76.73 54.1131C79.3261 51.0095 81.8652 49.9777 83.8103 50.1941H83.8184C84.7706 50.2939 85.5844 50.6767 86.2355 51.2591L90.5243 40.8084H90.5324C90.5975 40.6587 90.6789 40.5172 90.7847 40.3841C91.9729 38.928 93.4785 38.0793 94.9189 37.9295C95.9037 37.8296 96.8558 38.046 97.6859 38.5951C98.4753 39.1193 99.1264 39.9348 99.5333 41.058C100.249 43.0134 100.233 46.0504 98.8334 50.2523L96.7175 57.8657C96.4082 58.964 96.1397 60.0207 95.8874 60.9526C94.5039 66.2362 94.0156 68.1084 89.4012 73.5334C85.7472 77.8351 82.1745 81.2965 78.7402 84.6081C77.8449 85.5151 76.9497 86.3804 76.0383 87.279ZM72.8643 90.0914C72.6446 90.1413 72.4167 90.1413 72.1889 90.0914H54.0081V96.7978H73.1248V90.0914H72.8643Z" fill="#D2D2D2" />
	<path fillRule="evenodd" clip-rule="evenodd" d="M49.6627 9.8848C54.0736 5.17533 57.1661 1.10655 63.9778 0.307776C76.7549 -1.18993 88.5065 12.1813 82.0528 25.3445C80.8484 27.8074 78.822 30.5698 76.4049 33.4155V33.066H59.868L59.2821 33.6817L56.6372 36.4691L51.1927 25.7772L49.386 22.2243L47.6526 25.8188L42.7208 36.0614L37.8297 28.8059L36.1125 26.2598L34.5175 28.8974L32.2225 32.6833H22.1555C18.7293 27.8823 16.3285 22.6819 16.1332 17.0738C15.767 6.81449 23.6855 0.241211 32.8003 0.36602C40.9385 0.474188 44.3566 4.61785 49.6627 9.8848ZM73.0845 37.1348C72.8404 37.4011 72.5881 37.6673 72.3358 37.9336C67.7947 42.7346 62.7734 47.444 59.2577 51.0136L49.6627 60.7487L41.7361 52.944C36.902 48.1846 30.5297 42.8095 25.3538 36.752H34.4198L35.0057 35.7869L36.2834 33.6651L41.3698 41.2119L43.2823 44.0492L44.7716 40.954L49.4674 31.2105L54.3747 40.8458L55.6443 43.342L57.5568 41.3284L61.5282 37.1431L73.0845 37.1348Z" fill="#A6D744" />
</svg>
