<svg width="22" height="22" viewBox="0 0 22 22" fill="none" xmlns="http://www.w3.org/2000/svg">
	<path d="M10.9685 8.51172C10.9685 8.51172 10.9243 8.51172 10.899 8.51172C10.3053 8.51172 9.73689 8.7454 9.29479 9.17488C8.80847 9.64225 8.53058 10.3054 8.53058 10.9812C8.53058 12.3391 9.63584 13.4444 10.9937 13.4444C12.3516 13.4444 13.4316 12.3517 13.4569 10.9559C13.4695 10.4633 13.3748 9.76224 12.8885 9.23803C12.4653 8.78961 11.8022 8.53698 10.9622 8.51172H10.9685Z" fill="#103F04" />
	<path d="M14.2211 4.45676H7.77897C6.06107 4.45676 4.66528 5.85254 4.66528 7.57044V14.442C4.66528 16.1599 6.06107 17.5557 7.77897 17.5557H14.2148C15.9327 17.5557 17.3284 16.1599 17.3284 14.442V7.56412C17.3284 5.84623 15.9327 4.45044 14.2148 4.45044L14.2211 4.45676ZM15.6169 11.0062C15.5916 12.2315 15.1053 13.381 14.2527 14.2399C13.3874 15.1115 12.2316 15.5978 11 15.5978C8.45476 15.5978 6.38318 13.5262 6.38318 10.981C6.38318 9.73044 6.90107 8.50518 7.79791 7.6336C8.67581 6.78097 9.82528 6.33254 11.0316 6.36412C12.4527 6.40833 13.64 6.88833 14.4611 7.76623C15.2442 8.59991 15.6421 9.71781 15.6105 10.9999L15.6169 11.0062ZM15.3642 7.5957C14.8148 7.5957 14.3727 7.1536 14.3727 6.60412C14.3727 6.05465 14.8148 5.61254 15.3642 5.61254C15.9137 5.61254 16.3558 6.05465 16.3558 6.60412C16.3558 7.1536 15.9137 7.5957 15.3642 7.5957Z" fill="#103F04" />
	<path d="M17.0632 0.263184H4.93687C2.35371 0.263184 0.263184 2.36634 0.263184 4.95582V17C0.263184 19.5958 2.35371 21.6927 4.93687 21.6927H17.0632C19.6463 21.6927 21.7369 19.5895 21.7369 17V4.95582C21.7369 2.36003 19.6463 0.263184 17.0632 0.263184ZM19.0842 14.4358C19.0842 17.12 16.899 19.3053 14.2148 19.3053H7.77897C5.09476 19.3053 2.9095 17.12 2.9095 14.4358V7.56424C2.9095 4.88003 5.09476 2.69476 7.77897 2.69476H14.2148C16.899 2.69476 19.0842 4.88003 19.0842 7.56424V14.4358Z" fill="#103F04" />
</svg>
