<svg width="101" height="130" viewBox="0 0 101 130" fill="none" xmlns="http://www.w3.org/2000/svg">
	<path d="M84.0667 74.4608C79.5988 74.8242 76.1946 78.0954 76.4074 81.9119C76.8329 85.5465 80.4498 88.4543 84.705 88.4543C89.1729 88.2726 92.3642 85.1831 92.3642 81.3667C92.3642 81.1849 92.3642 81.1849 92.3642 81.0032C92.3642 77.3685 88.7474 74.279 84.4922 74.4608C84.2794 74.4608 84.0667 74.4608 84.0667 74.4608Z" fill="#D2D2D2" />
	<path d="M13.6441 83.1855C17.4737 83.549 20.2395 86.275 20.2395 89.5462C20.0268 92.6357 17.0482 95.18 13.2185 94.9983C9.60166 94.8165 6.62305 92.2723 6.83581 89.1828C6.83581 89.001 6.83581 89.001 6.83581 88.8193C7.04857 85.7298 10.0272 83.1855 13.6441 83.1855Z" fill="#D2D2D2" />
	<path d="M60.025 57.0151C60.025 61.3767 55.7698 64.8296 50.6637 64.8296C45.3447 65.0114 41.0896 61.5584 40.8768 57.0151C40.664 52.4717 44.7064 48.837 50.0254 48.6553C50.2381 48.6553 50.6637 48.6553 50.8764 48.6553C55.9826 48.837 60.2378 52.4717 60.025 57.0151Z" fill="#D2D2D2" />
	<path d="M38.5365 80.6394C37.6854 81.5481 36.8344 82.4568 36.4089 83.5472C32.792 89.181 28.1113 94.2695 22.5796 98.4494C21.0903 99.5398 20.2393 101.175 20.4521 102.811V126.255C20.4521 128.072 20.6648 129.708 18.1117 129.708C15.5586 129.708 14.9204 128.254 14.9204 126.436C15.1331 122.438 15.1331 118.622 15.1331 114.805C14.9204 113.715 15.7714 112.079 13.6438 112.079C11.5162 112.079 12.1545 113.897 12.1545 114.624V125.891C12.1545 127.709 12.58 129.708 9.38866 129.708C6.62281 129.708 6.83557 127.527 6.83557 126.073C6.83557 118.804 7.04832 111.898 6.83557 104.628C6.83557 103.174 6.19729 101.539 4.92074 100.448V108.627C4.92074 110.262 5.34626 111.716 2.79317 111.716C0.665589 111.716 0.878346 110.08 0.878346 108.808V100.448C0.878346 97.5407 2.58041 95.7234 6.41005 95.9051C9.38866 96.0869 12.3673 95.9051 15.3459 95.9051C20.6648 95.9051 22.5796 94.2695 25.1327 90.2714C29.3879 82.6385 34.7068 75.1874 40.8768 68.4632C42.7916 66.2824 44.9192 65.0103 48.1106 67.3728C50.0254 68.8267 52.7913 68.645 54.4933 67.1911C56.8336 65.3738 58.5357 66.1007 60.6633 67.7363C63.0036 69.9171 65.1312 72.2797 66.8333 75.0057C69.5991 79.0038 72.5777 83.002 75.5563 87.0001C75.5563 87.3636 75.7691 87.7271 76.1946 87.9088C78.3222 88.9992 80.6625 89.5444 83.2156 89.5444C86.6197 89.5444 90.2366 89.7262 93.8535 89.5444C98.3214 89.5444 100.449 91.3618 100.449 94.9965V104.992C100.449 106.627 100.662 108.445 97.8959 108.445C94.9173 108.445 95.3428 106.627 95.3428 104.81V94.9965C93.6407 96.2686 92.7897 98.0859 93.2152 100.085V125.528C93.2152 127.345 93.6407 129.889 90.2366 129.889C86.8325 129.889 86.8325 127.527 86.8325 125.164V111.898C86.8325 110.807 87.4708 108.808 85.3432 108.808C82.7901 108.808 83.6411 110.989 83.6411 112.079C83.4284 116.805 83.6411 121.348 83.6411 125.71C83.6411 127.89 82.7901 129.889 80.0242 129.708C76.8329 129.708 77.0456 127.345 77.0456 125.71V97.7225C77.2584 92.4522 74.2798 94.633 70.6629 90.0896C68.3226 86.8184 65.7695 83.5472 63.0036 80.4577C64.9184 85.728 66.6205 90.8166 68.5353 95.9051C70.0246 100.63 69.3864 101.539 63.6419 101.539C60.6633 101.357 60.2378 102.448 60.2378 104.628V124.437C60.2378 126.8 60.2378 129.708 56.6209 129.708C53.004 129.708 53.4295 126.982 53.4295 124.619V105.174C53.4295 103.901 54.4933 101.721 51.7275 101.721C48.9616 101.721 50.0254 104.083 50.0254 104.992V125.346C50.0254 127.163 49.5999 129.162 47.2595 129.526C44.0682 130.071 43.2172 127.89 43.2172 125.71C43.2172 118.985 43.0044 112.079 43.2172 105.174C43.2172 102.448 42.3661 101.357 38.962 101.539C34.2813 101.721 33.4303 100.448 34.7068 96.6321C36.6217 91.3618 38.3237 86.2732 40.2385 80.8212C38.962 80.8212 38.7492 80.8212 38.5365 80.6394Z" fill="#D2D2D2" />
	<path d="M0.452881 45.931C1.51667 45.931 2.58046 45.7493 3.64425 45.3858C7.68665 44.6589 11.9418 44.8406 15.9842 45.931C18.5373 46.658 18.5373 46.658 18.9628 44.2954C19.6011 38.2982 21.3031 32.4827 24.2818 26.8489C26.8348 21.0334 30.8772 15.7631 36.1962 11.5832C36.8345 11.038 37.6855 10.6746 37.8983 9.94763C37.26 9.40243 36.6217 9.7659 35.9834 9.7659C18.1118 13.7641 4.28252 26.4855 0.878396 42.1146C0.878396 42.4781 0.665639 42.6598 0.452881 43.0233V45.931Z" fill="#D2D2D2" />
	<path d="M50.8766 0.496094C53.0042 2.1317 50.8766 6.31159 52.1531 8.31067C52.7914 9.58281 54.919 9.21934 56.1955 9.76454C60.4507 11.5819 64.0676 14.4896 66.8334 17.9426C72.5779 25.212 76.1947 33.5717 77.6841 42.295C77.8968 43.5671 78.3223 44.6575 78.5351 45.9297C78.7478 47.2018 78.5351 47.5653 77.0458 47.0201C69.5993 44.8393 61.7272 43.5671 53.6424 43.0219C47.2597 42.6584 40.6642 43.2036 34.4942 44.4758C30.6646 45.021 26.8349 45.9297 23.2181 47.0201C21.516 47.3835 21.0905 46.8383 21.3032 45.5662C21.516 42.8402 22.1543 40.2959 23.0053 37.7516C24.4946 30.1188 28.3242 23.0311 33.6432 16.8522C36.1963 13.581 40.0259 11.0367 44.2811 9.40107C47.898 8.31067 47.898 8.31067 47.898 4.85772C47.898 3.22211 47.2597 1.76823 48.9618 0.496094L50.8766 0.496094Z" fill="#A6D744" />
	<path d="M99.8105 45.931C98.7467 45.931 97.6829 45.7493 96.6191 45.3858C92.5767 44.6589 88.3216 44.8406 84.2792 45.931C81.5133 46.658 81.5133 46.658 81.3006 44.2954C80.6623 38.2982 78.7475 32.4827 75.9816 26.8489C73.4285 21.0334 69.3861 15.7631 64.0672 11.5832C63.4289 11.038 62.5779 10.6746 62.3651 9.94763C63.0034 9.40243 63.6417 9.7659 64.2799 9.7659C82.5771 13.5823 96.4064 26.3037 99.5977 41.9329C99.5977 42.2963 99.8105 42.4781 100.023 42.8415V45.931H99.8105Z" fill="#D2D2D2" />
</svg>
