<svg width="22" height="22" viewBox="0 0 22 22" fill="none" xmlns="http://www.w3.org/2000/svg">
<path d="M1.79792 0.263184H20.2021C21.0484 0.263184 21.7369 0.951604 21.7369 1.79792V20.2021C21.7369 21.0484 21.0484 21.7369 20.2021 21.7369H1.79792C0.951604 21.7369 0.263184 21.0484 0.263184 20.2021V1.79792C0.263184 0.951604 0.951604 0.263184 1.79792 0.263184ZM3.88213 6.32634C4.69055 6.89476 5.80845 6.70529 6.37687 5.89687C6.94529 5.08845 6.75582 3.97055 5.94739 3.40213C5.13897 2.83371 4.02108 3.02318 3.45266 3.8316C3.10529 4.32424 3.0295 4.9495 3.25055 5.5116C3.37687 5.84003 3.59792 6.12424 3.88845 6.32634H3.88213ZM15.6042 18.6737H18.6737L18.6295 12.2948C18.6295 9.15581 16.6969 8.20213 14.8842 8.20213C13.5579 8.18318 12.3011 8.80845 11.5116 9.8695V8.44845H8.44213V18.6737H11.5116V13.5579C11.3853 12.2569 12.339 11.1074 13.6337 10.9811C13.6653 10.9811 13.6906 10.9811 13.7221 10.9748C14.8527 10.9748 15.6042 11.8148 15.6042 13.4695V18.6737ZM3.33266 8.44213V18.6737H6.40213V8.44213H3.33266Z" fill="#103F04"/>
</svg>
