<svg width="25" height="18" viewBox="0 0 25 18" fill="none" xmlns="http://www.w3.org/2000/svg">
	<path d="M24.1137 3.28423C23.8421 2.26107 23.0337 1.45265 21.9979 1.18107C20.1221 0.694753 12.6252 0.694753 12.6252 0.694753C12.6252 0.694753 5.26735 0.663174 3.39156 1.14949C2.35577 1.42107 1.36419 2.26107 1.09262 3.28423C0.587352 5.14107 0.637878 9.00002 0.637878 9.00002C0.637878 9.00002 0.593668 12.8526 1.09262 14.7158C1.36419 15.739 2.37472 16.5726 3.39156 16.8505C5.26735 17.3558 12.6252 17.3053 12.6252 17.3053C12.6252 17.3053 19.9831 17.3369 21.8589 16.8505C22.8947 16.579 23.8547 15.739 24.1263 14.7158C24.6316 12.8716 24.6316 9.00002 24.6316 9.00002C24.6316 9.00002 24.6189 5.14738 24.1137 3.28423ZM10.3263 12.6884V5.31159L16.3137 9.00002L10.3263 12.6884Z" fill="#103F04" />
</svg>
